<svg width="32" height="32" viewBox="0 0 32 32" fill="none" xmlns="http://www.w3.org/2000/svg">
<path d="M26.867 18.5467C27.2592 17.3137 27.4572 16.0272 27.4536 14.7334C27.4563 12.2138 26.7114 9.75011 25.3132 7.65409C23.9151 5.55806 21.9266 3.92393 19.5993 2.95852C17.2721 1.99311 14.7107 1.73982 12.2394 2.23072C9.76817 2.72161 7.49808 3.93462 5.71649 5.71621C3.9349 7.4978 2.7219 9.76788 2.231 12.2392C1.74011 14.7104 1.99339 17.2718 2.9588 19.599C3.92421 21.9263 5.55834 23.9148 7.65437 25.313C9.7504 26.7111 12.2141 27.456 14.7336 27.4534C16.0275 27.4569 17.314 27.2589 18.547 26.8667" stroke="#ABA8CD" stroke-width="1.91" stroke-miterlimit="10"/>
<path d="M26.867 18.5467C27.2592 17.3137 27.4572 16.0272 27.4536 14.7334C27.4563 12.2138 26.7114 9.75011 25.3132 7.65409C23.9151 5.55806 21.9266 3.92393 19.5993 2.95852C17.2721 1.99311 14.7107 1.73982 12.2394 2.23072C9.76817 2.72161 7.49808 3.93462 5.71649 5.71621C3.9349 7.4978 2.7219 9.76788 2.231 12.2392C1.74011 14.7104 1.99339 17.2718 2.9588 19.599C3.92421 21.9263 5.55834 23.9148 7.65437 25.313C9.7504 26.7111 12.2141 27.456 14.7336 27.4534C16.0275 27.4569 17.314 27.2589 18.547 26.8667" stroke="#ABA8CD" stroke-width="1.91" stroke-miterlimit="10"/>
<path d="M5.64062 23.64C6.82558 22.4294 8.24019 21.4673 9.80162 20.8102C11.3631 20.1531 13.0399 19.8142 14.734 19.8134C16.2697 19.8119 17.7926 20.0921 19.2273 20.64C19.5889 20.7706 19.9409 20.9266 20.2806 21.1067" stroke="#ABA8CD" stroke-width="1.91" stroke-miterlimit="10"/>
<path d="M5.64062 5.81335C6.92805 7.1412 8.4948 8.16596 10.2273 8.81335C11.6663 9.36232 13.1938 9.64251 14.734 9.64002C16.2697 9.64148 17.7926 9.36129 19.2273 8.81335C20.9598 8.16596 22.5265 7.1412 23.814 5.81335" stroke="#ABA8CD" stroke-width="1.91" stroke-miterlimit="10"/>
<path d="M14.734 27.4667C17.5469 27.4667 19.8273 21.7658 19.8273 14.7333C19.8273 7.70091 17.5469 2 14.734 2C11.921 2 9.64062 7.70091 9.64062 14.7333C9.64062 21.7658 11.921 27.4667 14.734 27.4667Z" stroke="#ABA8CD" stroke-width="1.91" stroke-miterlimit="10"/>
<path d="M14.734 27.4667C17.5469 27.4667 19.8273 21.7658 19.8273 14.7333C19.8273 7.70091 17.5469 2 14.734 2C11.921 2 9.64062 7.70091 9.64062 14.7333C9.64062 21.7658 11.921 27.4667 14.734 27.4667Z" stroke="#ABA8CD" stroke-width="1.91" stroke-miterlimit="10"/>
<path d="M22.76 30H18.5467V25.7867C18.5467 23.8665 19.3095 22.025 20.6672 20.6672C22.025 19.3095 23.8665 18.5467 25.7867 18.5467H30V22.76C30 24.6802 29.2372 26.5217 27.8795 27.8795C26.5217 29.2372 24.6802 30 22.76 30V30Z" stroke="#ABA8CD" stroke-width="1.91" stroke-miterlimit="10"/>
<path d="M25.0935 23.4534L18.5469 30" stroke="#ABA8CD" stroke-width="1.91" stroke-miterlimit="10"/>
<path d="M2 14.7334H27.4533" stroke="#ABA8CD" stroke-width="1.91" stroke-miterlimit="10"/>
</svg>
