<svg width="20" height="20" viewBox="0 0 20 20" fill="none" xmlns="http://www.w3.org/2000/svg">
    <path d="M18.995 4.89999C18.961 4.55799 18.754 4.25799 18.447 4.10499L10.447 0.104987C10.166 -0.0360129 9.834 -0.0360129 9.552 0.104987L1.552 4.10499C1.246 4.25899 1.039 4.55899 1.005 4.89999C0.994004 5.00699 0.0440035 15.667 9.594 19.914C9.723 19.972 9.861 20 10 20C10.139 20 10.277 19.972 10.406 19.914C19.956 15.667 19.006 5.00799 18.995 4.89999ZM10 17.897C3.231 14.625 2.911 7.64199 2.966 5.63499L10 2.11799L17.029 5.63299C17.066 7.62199 16.701 14.651 10 17.897Z" fill="white"/>
    <path d="M9 10.586L6.707 8.293L5.293 9.707L9 13.414L14.707 7.707L13.293 6.293L9 10.586Z" fill="white"/>
  </svg>