<svg width="32" height="32" viewBox="0 0 32 32" fill="none" xmlns="http://www.w3.org/2000/svg">
<path d="M26.1868 12.1867C26.1916 10.5189 25.787 8.87545 25.0083 7.40062C24.2296 5.92579 23.1006 4.66471 21.7207 3.72813C20.3407 2.79155 18.7519 2.20813 17.0937 2.02909C15.4356 1.85004 13.7588 2.08087 12.2107 2.70128C10.6626 3.3217 9.29053 4.31273 8.21495 5.58734C7.13936 6.86195 6.39319 8.38116 6.04195 10.0115C5.69071 11.6419 5.74514 13.3336 6.20048 14.938C6.65582 16.5425 7.49813 18.0106 8.65343 19.2134C10.1056 20.7528 10.9121 22.7905 10.9068 24.9067H21.0934C21.0733 22.8046 21.8718 20.7771 23.3201 19.2534C25.1606 17.3617 26.1892 14.8259 26.1868 12.1867V12.1867Z" stroke="#938905" stroke-width="1.91" stroke-miterlimit="10"/>
<path d="M15.9999 10.9066L13.4533 14.7199H15.9999V10.9066Z" stroke="#938905" stroke-width="1.91" stroke-miterlimit="10"/>
<path d="M16 17.28L18.5467 13.4534H16V17.28Z" stroke="#938905" stroke-width="1.91" stroke-miterlimit="10"/>
<path d="M10.9066 24.9066H21.0932V27.4533C21.0932 28.1287 20.8249 28.7765 20.3473 29.254C19.8697 29.7316 19.222 30 18.5466 30H13.4532C12.7778 30 12.13 29.7316 11.6525 29.254C11.1749 28.7765 10.9066 28.1287 10.9066 27.4533V24.9066Z" stroke="#938905" stroke-width="1.91" stroke-miterlimit="10"/>
<path d="M0.733276 12.1866H3.26661" stroke="#938905" stroke-width="1.91" stroke-miterlimit="10"/>
<path d="M4.54672 2H7.09339" stroke="#938905" stroke-width="1.91" stroke-miterlimit="10"/>
<path d="M4.54672 22.36H7.09339" stroke="#938905" stroke-width="1.91" stroke-miterlimit="10"/>
<path d="M31.2666 12.1866H28.7333" stroke="#938905" stroke-width="1.91" stroke-miterlimit="10"/>
<path d="M27.4532 22.36H24.9066" stroke="#938905" stroke-width="1.91" stroke-miterlimit="10"/>
<path d="M27.4532 2H24.9066" stroke="#938905" stroke-width="1.91" stroke-miterlimit="10"/>
</svg>
