<svg width="258" height="48" viewBox="0 0 258 48" fill="none" xmlns="http://www.w3.org/2000/svg">
<path d="M107.447 23.3101H100.567C99.2169 23.3101 98.0546 22.3746 97.9796 21.15C97.9046 19.8403 99.0669 18.7518 100.492 18.7518H109.378C110.127 18.0714 110.559 17.6802 111.308 16.9999H100.585C98.1858 16.9999 96.1237 18.7007 96.03 20.8779C95.9363 23.174 97.9609 25.062 100.473 25.062H107.353C108.703 25.062 109.865 25.9975 109.94 27.2221C110.015 28.5318 108.853 29.6203 107.428 29.6203H98.542C97.7922 30.3007 97.361 30.6919 96.6111 31.3722H107.334C109.734 31.3722 111.796 29.6714 111.89 27.4942C111.983 25.2151 109.94 23.3101 107.447 23.3101Z" fill="white"/>
<path d="M124.938 17.0852H113.522V31.4746H115.453V25.1643H124.92C127.375 25.1643 129.362 23.3614 129.362 21.1333C129.362 18.9051 127.394 17.0852 124.938 17.0852ZM124.938 23.3954H115.471V18.8371H124.938C126.326 18.8371 127.45 19.8576 127.45 21.1163C127.45 22.3749 126.326 23.3954 124.938 23.3954Z" fill="white"/>
<path d="M162.825 27.4435C162.825 28.7021 161.701 29.7227 160.313 29.7227H153.358C151.971 29.7227 150.846 28.7021 150.846 27.4435V17.0852H148.915V27.4435C148.915 29.6716 150.903 31.4746 153.358 31.4746H160.313C162.769 31.4746 164.756 29.6716 164.756 27.4435V17.0852H162.825V27.4435Z" fill="white"/>
<path d="M167.08 21.1163V27.4265C167.08 29.6546 169.067 31.4575 171.523 31.4575H182.94C182.19 30.7772 181.759 30.386 181.009 29.7057H171.542C170.155 29.7057 169.03 28.6851 169.03 27.4265V21.1163C169.03 19.8576 170.155 18.8371 171.542 18.8371H181.009C181.759 18.1568 182.19 17.7656 182.94 17.0852H171.523C169.086 17.0852 167.08 18.8881 167.08 21.1163Z" fill="white"/>
<path d="M183.334 21.1163V27.4265C183.334 29.6546 185.321 31.4575 187.777 31.4575H199.193V29.7227H187.777C186.389 29.7227 185.265 28.7021 185.265 27.4435V25.1643H195.894V23.3954H185.265V21.1163C185.265 19.8576 186.389 18.8371 187.777 18.8371H199.193V17.0852H187.777C185.321 17.0852 183.334 18.9051 183.334 21.1163Z" fill="white"/>
<path d="M133.149 25.1643H140.385L145.634 31.4746H148.071L142.803 25.1473C145.184 25.0623 147.078 23.2934 147.078 21.1163C147.078 18.8881 145.09 17.0852 142.635 17.0852H131.218V31.4746H133.149V25.1643ZM133.149 18.8371H142.616C144.003 18.8371 145.128 19.8576 145.128 21.1163C145.128 22.3749 144.003 23.3954 142.616 23.3954H133.149V18.8371Z" fill="white"/>
<path d="M219.326 17.136H207.853V31.5253L219.401 31.3723C221.781 31.3382 223.712 29.5693 223.712 27.4092C223.712 26.1676 223.075 25.045 222.081 24.3137C223.075 23.5823 223.712 22.4767 223.712 21.2181V21.082C223.694 18.9219 221.725 17.136 219.326 17.136ZM219.344 29.6374L209.765 29.7564V25.2151H219.307C220.657 25.2151 221.744 26.2016 221.744 27.4262C221.763 28.6339 220.675 29.6204 219.344 29.6374ZM221.763 21.2351C221.763 22.4597 220.675 23.4462 219.326 23.4462H209.784V18.8879H219.326C220.675 18.8879 221.763 19.8744 221.763 21.099V21.2351Z" fill="white"/>
<path d="M237.228 17.136H230.273C227.817 17.136 225.83 18.9389 225.83 21.167V27.4773C225.83 29.7054 227.817 31.5083 230.273 31.5083H237.228C239.683 31.5083 241.671 29.7054 241.671 27.4773V21.1841C241.671 18.9559 239.683 17.136 237.228 17.136ZM239.74 27.4943C239.74 28.7529 238.615 29.7734 237.228 29.7734H230.273C228.885 29.7734 227.761 28.7529 227.761 27.4943V21.1841C227.761 19.9254 228.885 18.9049 230.273 18.9049H237.228C238.615 18.9049 239.74 19.9254 239.74 21.1841V27.4943Z" fill="white"/>
<path d="M251.795 24.3307L257.981 17.136H255.544L250.576 22.9019L245.609 17.136H243.153L249.339 24.3307L243.134 31.5423H245.59L250.576 25.7594L255.544 31.5423H258L251.795 24.3307Z" fill="white"/>
<path d="M10.8912 28.817H7.10333V47.2682H10.8912V28.817Z" fill="white"/>
<path d="M18.4839 47.2682L29.8568 40.8519V28.817H18.4839V47.2682Z" fill="white"/>
<path d="M41.2299 6.0584L52.6027 12.4481V8.18534L39.336 0.732178L0 22.8347L1.89395 26.0339L37.442 6.0584V47.2679H48.9514L41.2299 42.9343V36.9079L59.6686 47.2679H67.2536L41.2299 32.6452V26.6277L71.5696 43.6698V39.4071L41.2299 22.365V16.3386L71.5696 33.3896V29.1269L41.2299 12.0847V6.0584Z" fill="white"/>
<path d="M63.9854 14.5841V8.18555H60.1884V16.711L76.7787 26.0341L78.6727 22.8349L63.9854 14.5841Z" fill="white"/>
</svg>
