<svg width="32" height="29" viewBox="0 0 32 29" fill="none" xmlns="http://www.w3.org/2000/svg">
<path d="M24.9467 18.84C24.9467 21.2128 24.0041 23.4884 22.3263 25.1663C20.6484 26.8441 18.3728 27.7867 16 27.7867C13.6272 27.7867 11.3516 26.8441 9.67376 25.1663C7.99594 23.4884 7.05334 21.2128 7.05334 18.84C7.05334 11.16 16 2.22668 16 2.22668C16 2.22668 24.9467 11.16 24.9467 18.84Z" stroke="#39C4CA" stroke-width="1.92" stroke-miterlimit="10"/>
<path d="M16 22.6666C14.9839 22.6666 14.0092 22.2639 13.2894 21.5466C12.5697 20.8294 12.1636 19.8561 12.16 18.84" stroke="#39C4CA" stroke-width="1.92" stroke-miterlimit="10"/>
<path d="M28.7733 18.84H31.3333" stroke="#39C4CA" stroke-width="1.92" stroke-miterlimit="10"/>
<path d="M26.2267 27.7733H28.7733" stroke="#39C4CA" stroke-width="1.92" stroke-miterlimit="10"/>
<path d="M26.2267 9.89331H28.7733" stroke="#39C4CA" stroke-width="1.92" stroke-miterlimit="10"/>
<path d="M0.666656 18.84H3.22666" stroke="#39C4CA" stroke-width="1.92" stroke-miterlimit="10"/>
<path d="M3.22665 27.7733H5.77332" stroke="#39C4CA" stroke-width="1.92" stroke-miterlimit="10"/>
<path d="M3.22665 9.89331H5.77332" stroke="#39C4CA" stroke-width="1.92" stroke-miterlimit="10"/>
</svg>
