<svg width="22" height="22" viewBox="0 0 22 22" fill="none" xmlns="http://www.w3.org/2000/svg">
    <path d="M11.8669 17.7395V17.0666C11.8669 15.6779 12.4077 14.373 13.39 13.3902L15.352 11.4282C16.6392 12.1424 18.2879 11.9672 19.3815 10.8739C21.1536 9.10227 21.7792 6.54777 21.1773 4.28967C18.9192 3.68751 16.3642 4.31203 14.592 6.08419C13.4662 7.20999 13.3086 8.92755 14.0985 10.2299L12.1646 12.1643C12.0307 12.2982 11.9065 12.4394 11.7837 12.5831C11.562 11.0767 10.8628 9.72497 9.83531 8.69771L9.43231 8.29445C10.5105 6.68505 10.3413 4.48831 8.91933 3.06741C6.75275 0.901347 3.63119 0.135646 0.872327 0.871966C0.136007 3.63135 0.900147 6.75499 3.06621 8.92079C4.45591 10.311 6.58609 10.4972 8.18327 9.49721L8.60993 9.92335C9.59247 10.9059 10.1333 12.2111 10.1333 13.6V17.7431C6.83777 17.8513 3.60727 18.553 0.600107 19.7987L1.26363 21.4C7.54159 18.7982 14.4589 18.7974 20.7374 21.3956L21.4001 19.7945C18.2778 18.502 15.0543 17.8403 11.8669 17.7395ZM15.8174 7.31009C16.7773 6.35069 18.1062 5.80001 19.4636 5.80001C19.5307 5.80001 19.5983 5.80183 19.6651 5.80443C19.7244 7.21181 19.1867 8.61737 18.1558 9.64827C17.8436 9.96079 17.4281 10.1332 16.9863 10.1332C16.5454 10.1332 16.1296 9.96079 15.8174 9.64853C15.5051 9.33653 15.3335 8.92157 15.3335 8.47983C15.3335 8.03809 15.5051 7.62235 15.8174 7.31009ZM7.69421 7.69593C7.24077 8.15015 6.63627 8.40001 5.99303 8.40001C5.35057 8.40001 4.74633 8.15015 4.29185 7.69567C2.86991 6.27373 2.17285 4.30241 2.35875 2.36125C2.55999 2.34279 2.76175 2.33343 2.96481 2.33343C4.72527 2.33343 6.44829 3.04765 7.69395 4.29357C8.63203 5.23139 8.63203 6.75785 7.69421 7.69593Z" fill="white"/>
  </svg>