<svg width="24" height="19" viewBox="0 0 24 19" fill="none" xmlns="http://www.w3.org/2000/svg">
    <path d="M4.74513 4.86983C6.13341 4.86983 7.45121 4.3048 8.40959 3.34156C9.3681 4.30492 10.6858 4.86983 12.074 4.86983C13.4626 4.86983 14.7801 4.30504 15.738 3.34194C16.6964 4.30504 18.0139 4.86983 19.4025 4.86983C21.2397 4.86983 22.9529 3.88049 23.8738 2.28808C24.1315 1.84226 23.9791 1.27188 23.5332 1.01417C23.0874 0.756701 22.5171 0.908869 22.2593 1.35468C21.6709 2.37261 20.5762 3.00503 19.4026 3.00503C18.2288 3.00503 17.1337 2.37261 16.5453 1.35468C16.3786 1.06651 16.0709 0.888853 15.738 0.888977C15.405 0.888977 15.0974 1.06663 14.9308 1.35493C14.3428 2.37286 13.2483 3.00503 12.0743 3.00503C10.9008 3.00503 9.80583 2.37249 9.21655 1.35431C9.04984 1.06626 8.74227 0.888853 8.40959 0.888853H8.40934C8.07654 0.888853 7.76897 1.06638 7.60238 1.35456C7.01397 2.37249 5.91921 3.0049 4.7455 3.0049C3.57167 3.0049 2.47666 2.37249 1.88826 1.35456C1.63054 0.908869 1.06016 0.756204 0.614349 1.01404C0.168537 1.27176 0.0159965 1.84214 0.273836 2.28795C1.19418 3.88049 2.90756 4.86983 4.74513 4.86983Z" fill="white"/>
    <path d="M23.5332 7.85196C23.0874 7.5945 22.5171 7.74654 22.2593 8.19248C21.6709 9.21041 20.5762 9.84282 19.4026 9.84282C18.2288 9.84282 17.1337 9.21041 16.5453 8.19248C16.3786 7.9043 16.0709 7.72665 15.738 7.72677C15.405 7.72677 15.0974 7.90443 14.9308 8.19273C14.3428 9.21066 13.2483 9.84282 12.0743 9.84282C10.9008 9.84282 9.80583 9.21028 9.21655 8.1921C9.04984 7.90405 8.74227 7.72665 8.40959 7.72665H8.40934C8.07654 7.72665 7.76897 7.90418 7.60238 8.19235C7.01397 9.21029 5.91921 9.8427 4.7455 9.8427C3.57167 9.8427 2.47666 9.21029 1.88826 8.19235C1.63054 7.74654 1.06016 7.594 0.614349 7.85184C0.168537 8.10955 0.0159965 8.67994 0.273836 9.12575C1.19455 10.7183 2.90793 11.7076 4.74563 11.7076C6.13391 11.7076 7.4517 11.1426 8.41009 10.1794C9.36859 11.1427 10.6863 11.7076 12.0745 11.7076C13.4631 11.7076 14.7806 11.1428 15.7385 10.1797C16.6969 11.1428 18.0144 11.7076 19.403 11.7076C21.2402 11.7076 22.9534 10.7184 23.8743 9.12575C24.1315 8.68006 23.9791 8.10968 23.5332 7.85196Z" fill="white"/>
    <path d="M23.5332 14.6897C23.0874 14.4321 22.5171 14.5843 22.2593 15.0302C21.6709 16.0481 20.5762 16.6805 19.4026 16.6805C18.2288 16.6805 17.1337 16.0481 16.5453 15.0302C16.3786 14.742 16.0709 14.5644 15.738 14.5645C15.405 14.5645 15.0974 14.7421 14.9308 15.0304C14.3428 16.0484 13.2483 16.6805 12.0743 16.6805C10.9008 16.6805 9.80583 16.048 9.21655 15.0298C9.04984 14.7418 8.74227 14.5644 8.40959 14.5644H8.40934C8.07654 14.5644 7.76897 14.7419 7.60238 15.0301C7.01397 16.048 5.91921 16.6804 4.7455 16.6804C3.57167 16.6804 2.47666 16.048 1.88826 15.0301C1.63054 14.5843 1.06016 14.4318 0.614349 14.6896C0.168537 14.9473 0.0159965 15.5176 0.273836 15.9635C1.19455 17.556 2.90793 18.5453 4.74563 18.5453C6.13391 18.5453 7.4517 17.9803 8.41009 17.0171C9.36859 17.9804 10.6863 18.5453 12.0745 18.5453C13.4631 18.5453 14.7806 17.9806 15.7385 17.0174C16.6969 17.9806 18.0144 18.5453 19.403 18.5453C21.2402 18.5453 22.9534 17.556 23.8743 15.9635C24.1315 15.5178 23.9791 14.9474 23.5332 14.6897Z" fill="white"/>
  </svg>