<svg width="22" height="22" viewBox="0 0 22 22" fill="none" xmlns="http://www.w3.org/2000/svg">
    <path fill-rule="evenodd" clip-rule="evenodd" d="M11 22C4.92487 22 0 17.0751 0 11C0 4.92487 4.92487 0 11 0C17.0751 0 22 4.92487 22 11C22 17.0751 17.0751 22 11 22ZM11 20C15.9706 20 20 15.9706 20 11C20 6.02944 15.9706 2 11 2C6.02944 2 2 6.02944 2 11C2 15.9706 6.02944 20 11 20ZM11.0003 15.9983C10.4479 15.9983 10 15.5506 10 14.9983C10 14.4461 10.4479 13.9983 11.0003 13.9983C11.5528 13.9983 12.0007 14.4461 12.0007 14.9983C12.0007 15.5506 11.5528 15.9983 11.0003 15.9983ZM12 13H10C10 11.2984 10.6246 10.5697 12.0528 9.85557C12.8746 9.44468 13 9.29835 13 8.5C13 7.55641 12.2772 7 11 7C9.89543 7 9 7.89543 9 9H7C7 6.79086 8.79086 5 11 5C13.2843 5 15 6.32063 15 8.5C15 10.2016 14.3754 10.9303 12.9472 11.6444C12.1254 12.0553 12 12.2016 12 13Z" fill="white"/>
  </svg>