<svg width="42" height="42" viewBox="0 0 42 42" fill="none" xmlns="http://www.w3.org/2000/svg">
    <circle cx="21" cy="21" r="20.58" stroke="white" stroke-width="0.84"/>
    <path d="M13.3813 26.1031C12.3128 26.1031 11.3955 25.8763 10.6294 25.4227C9.86334 24.959 9.27366 24.3189 8.86038 23.5024C8.4471 22.6759 8.24046 21.7233 8.24046 20.6448C8.24046 19.5662 8.4471 18.6136 8.86038 17.7871C9.27366 16.9605 9.86334 16.3154 10.6294 15.8517C11.3955 15.388 12.3128 15.1562 13.3813 15.1562C14.6513 15.1562 15.6896 15.4737 16.496 16.1087C17.3125 16.7337 17.8215 17.6157 18.0231 18.7547H15.8912C15.7601 18.1802 15.4779 17.7316 15.0445 17.4091C14.6211 17.0764 14.0566 16.9101 13.351 16.9101C12.3733 16.9101 11.6072 17.2427 11.0528 17.908C10.4984 18.5733 10.2212 19.4855 10.2212 20.6448C10.2212 21.804 10.4984 22.7162 11.0528 23.3815C11.6072 24.0367 12.3733 24.3643 13.351 24.3643C14.0566 24.3643 14.6211 24.2131 15.0445 23.9107C15.4779 23.5982 15.7601 23.1698 15.8912 22.6255H18.0231C17.8215 23.7141 17.3125 24.5659 16.496 25.1808C15.6896 25.7956 14.6513 26.1031 13.3813 26.1031ZM18.923 25.9216L22.7937 15.3376H24.971L28.8417 25.9216H26.7854L25.9387 23.4722H21.8109L20.9491 25.9216H18.923ZM22.3401 21.9602H25.4095L23.8672 17.5603L22.3401 21.9602ZM30.2051 25.9216V15.3376H32.1405V25.9216H30.2051Z" fill="white"/>
  </svg>